# xmcd
#
# Track frame offsets:
#	151
#	12850
#	27384
#	45746
#	63041
#	75551
#	92859
#	110875
#	125049
#	143150
#	154571
#	169163
#	185360
#
# Disc length: 2709 seconds
#
# Revision: 1
# Processed by: cddbd v1.5PL3 Copyright (c) Steve Scherf et al.
# Submitted via: audiograbber 1.82.02
#
DISCID=a80a930d
DTITLE=Paul McCloud - Easy On My Mind
DYEAR=1900
DGENRE=
TTITLE0=Back To The Country
TTITLE1=I'm A Believer
TTITLE2=Somebody's Child
TTITLE3=Like A Cloud On A Windy Day
TTITLE4=You Lay So Easy On My Mind
TTITLE5=Sweet Caroline
TTITLE6=Your Friend
TTITLE7=Overnight Sensation
TTITLE8=Play Me
TTITLE9=The Roadie and The Shirtmaker
TTITLE10=I'm Sorry
TTITLE11=It's Not Too Late
TTITLE12=One True Love
EXTD=
EXTT0=
EXTT1=
EXTT2=
EXTT3=
EXTT4=
EXTT5=
EXTT6=
EXTT7=
EXTT8=
EXTT9=
EXTT10=
EXTT11=
EXTT12=
PLAYORDER=
